<?xml version="1.0" ?><!-- Uploaded to: SVG Repo, www.svgrepo.com, Generator: SVG Repo Mixer Tools -->
<svg fill="#000000" width="800px" height="800px" viewBox="0 0 24 24" id="Layer_2" version="1.1" xml:space="preserve" xmlns="http://www.w3.org/2000/svg" xmlns:xlink="http://www.w3.org/1999/xlink"><circle cx="12" cy="13.688" r="0.5"/><path d="M16.785,12.635c0.098,0.098,0.226,0.146,0.354,0.146s0.256-0.049,0.354-0.146c1.344-1.343,1.344-3.529,0-4.874  c-0.195-0.195-0.512-0.195-0.707,0s-0.195,0.512,0,0.707c0.954,0.954,0.954,2.506,0,3.459C16.589,12.124,16.589,12.44,16.785,12.635  z"/><path d="M18.538,13.46c-0.195,0.195-0.195,0.512,0,0.707c0.098,0.098,0.226,0.146,0.354,0.146s0.256-0.049,0.354-0.146  c2.188-2.188,2.188-5.749,0-7.938c-0.195-0.195-0.512-0.195-0.707,0s-0.195,0.512,0,0.707C20.336,8.736,20.336,11.662,18.538,13.46z  "/><path d="M6.394,12.635c0.098,0.098,0.226,0.146,0.354,0.146s0.256-0.049,0.354-0.146c0.195-0.195,0.195-0.512,0-0.707  c-0.954-0.954-0.954-2.506,0-3.459c0.195-0.195,0.195-0.512,0-0.707s-0.512-0.195-0.707,0C5.05,9.105,5.05,11.292,6.394,12.635z"/><path d="M4.995,14.314c0.128,0,0.256-0.049,0.354-0.146c0.195-0.195,0.195-0.512,0-0.707c-1.798-1.798-1.798-4.725,0-6.523  c0.195-0.195,0.195-0.512,0-0.707s-0.512-0.195-0.707,0c-2.188,2.188-2.188,5.749,0,7.938C4.739,14.265,4.867,14.314,4.995,14.314z"/><path d="M10.313,17.688c-1.551,0-2.813,1.262-2.813,2.813C7.5,20.776,7.724,21,8,21h8c0.276,0,0.5-0.224,0.5-0.5  c0-1.551-1.262-2.813-2.813-2.813h-0.11l-0.175-1.965c1.425-0.536,2.411-1.844,2.531-3.372c0.003-0.023,0.014-0.044,0.014-0.069  c0-0.01-0.005-0.018-0.006-0.028c0.004-0.072,0.018-0.141,0.018-0.213V6.96c0-1.049-0.41-2.044-1.159-2.807  C14.044,3.41,13.049,3,12,3C9.816,3,8.04,4.776,8.04,6.96v5.08c0,0.058,0.012,0.113,0.014,0.171  c-0.004,0.024-0.014,0.046-0.014,0.071c0,0.061,0.015,0.118,0.035,0.172c0.157,1.487,1.134,2.75,2.522,3.269l-0.175,1.964H10.313z   M15.43,20H8.57c0.217-0.757,0.916-1.313,1.742-1.313h0.567h2.24h0.567C14.514,18.688,15.212,19.243,15.43,20z M12,4  c0.786,0,1.531,0.308,2.094,0.86c0.559,0.568,0.866,1.314,0.866,2.1v4.822H9.04V6.96C9.04,5.328,10.368,4,12,4z M9.145,12.782h5.711  c-0.265,1.019-1.056,1.845-2.122,2.117c-0.469,0.134-0.983,0.137-1.479-0.003C10.198,14.626,9.41,13.801,9.145,12.782z   M11.578,15.983c0.059,0.007,0.119-0.004,0.179,0C11.838,15.989,11.918,16,12,16c0.083,0,0.163-0.011,0.245-0.017  c0.059-0.004,0.118,0.007,0.177,0l0.152,1.704h-1.147L11.578,15.983z"/></svg>