<?xml version="1.0" encoding="iso-8859-1"?>
<!-- Uploaded to: SVG Repo, www.svgrepo.com, Generator: SVG Repo Mixer Tools -->
<svg fill="#000000" height="800px" width="800px" version="1.1" id="Layer_1" xmlns="http://www.w3.org/2000/svg" xmlns:xlink="http://www.w3.org/1999/xlink" 
	 viewBox="0 0 512 512" xml:space="preserve">
<g>
	<g>
		<path d="M256,0c-56.465,0-102.4,45.935-102.4,102.4v128c0,56.465,45.935,102.4,102.4,102.4s102.4-45.935,102.4-102.4v-128
			C358.4,45.935,312.465,0,256,0z M332.8,230.4c0,42.351-34.449,76.8-76.8,76.8s-76.8-34.449-76.8-76.8v-128
			c0-42.351,34.449-76.8,76.8-76.8c42.351,0,76.8,34.449,76.8,76.8V230.4z"/>
	</g>
</g>
<g>
	<g>
		<path d="M409.6,230.4v-25.6H384v25.6c0,70.579-57.421,128-128,128s-128-57.421-128-128v-25.6h-25.6v25.6
			c0,80.427,62.148,146.483,140.928,152.96c-0.009,0.222-0.128,0.41-0.128,0.64v102.4H140.8c-7.074,0-12.8,5.726-12.8,12.8
			c0,7.074,5.726,12.8,12.8,12.8h230.4c7.074,0,12.8-5.726,12.8-12.8c0-7.074-5.726-12.8-12.8-12.8H268.8V384
			c0-0.23-0.119-0.418-0.128-0.64C347.452,376.883,409.6,310.827,409.6,230.4z"/>
	</g>
</g>
</svg>